<svg xmlns="http://www.w3.org/2000/svg">
	<symbol id="arr" viewBox="0 0 20 14">
		<path d="M10 8.43194L14.2045 4.50773C14.6438 4.09768 15.3562 4.09768 15.7955 4.50773C16.2348 4.91778 16.2348 5.58261 15.7955 5.99266L10.7955 10.6593C10.3562 11.0694 9.64384 11.0694 9.2045 10.6593L4.2045 5.99266C3.76517 5.58261 3.76517 4.91778 4.2045 4.50773C4.64384 4.09768 5.35616 4.09768 5.7955 4.50773L10 8.43194Z" />
	</symbol>
	<symbol id="search" viewBox="0 0 32 32">
		<path id="&#226;&#134;&#179; Icon Color" d="M14.3337 4.66666C19.6724 4.66666 24.0003 8.99457 24.0003 14.3333C24.0003 16.5216 23.2732 18.5401 22.0474 20.1603L27.6098 25.7238C28.1305 26.2445 28.1305 27.0888 27.6098 27.6095C27.0891 28.1302 26.2449 28.1302 25.7242 27.6095L20.1606 22.047C18.5404 23.2729 16.5219 24 14.3337 24C8.99491 24 4.66699 19.6721 4.66699 14.3333C4.66699 8.99457 8.99491 4.66666 14.3337 4.66666ZM14.3337 7.33332C10.4677 7.33332 7.33366 10.4673 7.33366 14.3333C7.33366 18.1993 10.4677 21.3333 14.3337 21.3333C18.1997 21.3333 21.3337 18.1993 21.3337 14.3333C21.3337 10.4673 18.1997 7.33332 14.3337 7.33332Z" />
	</symbol>
	<symbol id="user" viewBox="0 0 24 24">
		<path d="M14.8496 7.95005C14.8496 6.37523 13.5744 5.10005 11.9996 5.10005C10.4248 5.10005 9.14961 6.37523 9.14961 7.95005C9.14961 9.52487 10.4248 10.8 11.9996 10.8C13.5744 10.8 14.8496 9.52487 14.8496 7.95005ZM16.6496 7.95005C16.6496 10.519 14.5685 12.6 11.9996 12.6C9.43068 12.6 7.34961 10.519 7.34961 7.95005C7.34961 5.38112 9.43068 3.30005 11.9996 3.30005C14.5685 3.30005 16.6496 5.38112 16.6496 7.95005ZM5.89961 18.4286C5.89961 19.1975 5.80884 19.1 6.2349 19.1H17.7643C18.1904 19.1 18.0996 19.1975 18.0996 18.4286C18.0996 16.536 15.3214 15.4 11.9996 15.4C8.6778 15.4 5.89961 16.536 5.89961 18.4286ZM4.09961 18.4286C4.09961 15.1018 7.7724 13.6 11.9996 13.6C16.2268 13.6 19.8996 15.1018 19.8996 18.4286C19.8996 20.1642 19.2141 20.9 17.7643 20.9H6.2349C4.78515 20.9 4.09961 20.1642 4.09961 18.4286Z" />
	</symbol>
	<symbol id="burger" viewBox="0 0 32 32">
		<path d="M25.9989 10C26.7879 10 27.4275 10.6396 27.4275 11.4286C27.4275 12.2175 26.7879 12.8571 25.9989 12.8571H5.99888C5.20991 12.8571 4.57031 12.2175 4.57031 11.4286C4.57031 10.6396 5.20991 10 5.99888 10H25.9989Z" />
		<path d="M27.4275 21.2857C27.4275 20.4968 26.7879 19.8572 25.9989 19.8572H5.99888C5.20991 19.8572 4.57031 20.4968 4.57031 21.2857C4.57031 22.0747 5.20991 22.7143 5.99888 22.7143H25.9989C26.7879 22.7143 27.4275 22.0747 27.4275 21.2857Z" />
	</symbol>
	<symbol id="clear" viewBox="0 0 64 64">
		<path fill-rule="evenodd" clip-rule="evenodd" d="M49.2377 18.1788C49.9211 17.4954 49.9211 16.3874 49.2377 15.704C48.5542 15.0206 47.4462 15.0206 46.7628 15.704L32.4708 29.9959L18.1788 15.704C17.4954 15.0206 16.3874 15.0206 15.704 15.704C15.0206 16.3874 15.0206 17.4954 15.704 18.1788L29.9959 32.4708L15.7062 46.7606C15.0228 47.444 15.0228 48.552 15.7062 49.2354C16.3896 49.9189 17.4976 49.9189 18.1811 49.2354L32.4708 34.9457L46.7606 49.2354C47.444 49.9189 48.552 49.9189 49.2354 49.2354C49.9189 48.552 49.9189 47.444 49.2354 46.7606L34.9457 32.4708L49.2377 18.1788Z" />
	</symbol>
	<symbol id="list" viewBox="0 0 24 24">
		<path d="M3.85742 11.9999C3.85742 12.7113 4.43171 13.2856 5.14314 13.2856C5.85456 13.2856 6.42885 12.7113 6.42885 11.9999C6.42885 11.2884 5.85456 10.7141 5.14314 10.7141C4.43171 10.7141 3.85742 11.2884 3.85742 11.9999ZM3.85742 6.857C3.85742 7.56843 4.43171 8.14272 5.14314 8.14272C5.85456 8.14272 6.42885 7.56843 6.42885 6.857C6.42885 6.14557 5.85456 5.57129 5.14314 5.57129C4.43171 5.57129 3.85742 6.14557 3.85742 6.857ZM3.85742 17.1427C3.85742 17.8484 4.43744 18.4284 5.14314 18.4284C5.84883 18.4284 6.42885 17.8484 6.42885 17.1427C6.42885 16.437 5.8585 15.857 5.14314 15.857C4.42778 15.857 3.85742 16.437 3.85742 17.1427ZM21.4289 17.1427C21.4289 16.6693 21.0451 16.2856 20.5717 16.2856H8.57171C8.09832 16.2856 7.71456 16.6693 7.71456 17.1427C7.71456 17.6161 8.09832 17.9999 8.57171 17.9999H20.5717C21.0451 17.9999 21.4289 17.6161 21.4289 17.1427ZM21.4289 11.9999C21.4289 11.5265 21.0451 11.1427 20.5717 11.1427H8.57171C8.09832 11.1427 7.71456 11.5265 7.71456 11.9999C7.71456 12.4732 8.09832 12.857 8.57171 12.857H20.5717C21.0451 12.857 21.4289 12.4732 21.4289 11.9999ZM8.57171 7.71415H20.5717C21.0451 7.71415 21.4289 7.33039 21.4289 6.857C21.4289 6.38362 21.0451 5.99986 20.5717 5.99986H8.57171C8.09832 5.99986 7.71456 6.38362 7.71456 6.857C7.71456 7.33039 8.09832 7.71415 8.57171 7.71415Z" />
	</symbol>
	<symbol id="arr_slider" viewBox="0 0 16 34">
		<path d="M14 2L2 17L14 32" stroke-width="4" stroke-linecap="round" stroke-linejoin="round" />
	</symbol>
	<symbol id="arr_download" viewBox="0 0 36 36">
		<path d="M9.00042 28.2856C8.29034 28.2856 7.7147 28.8612 7.7147 29.5713C7.7147 30.2814 8.29034 30.857 9.00042 30.857H27.0004C27.7105 30.857 28.2861 30.2814 28.2861 29.5713C28.2861 28.8612 27.7105 28.2856 27.0004 28.2856H9.00042ZM18.0004 2.57129C17.2903 2.57129 16.7147 3.14692 16.7147 3.857V21.3234L9.90956 14.5193C9.40745 14.0172 8.59338 14.0172 8.09128 14.5193C7.58918 15.0214 7.58918 15.8355 8.09128 16.3376L17.0913 25.3376C17.5934 25.8397 18.4075 25.8397 18.9096 25.3376L27.9096 16.3376C28.4117 15.8355 28.4117 15.0214 27.9096 14.5193C27.4075 14.0172 26.5934 14.0172 26.0913 14.5193L19.2861 21.3234V3.857C19.2861 3.14692 18.7105 2.57129 18.0004 2.57129Z" />
	</symbol>
	<symbol id="home" viewBox="0 0 32 32">
		<path d="M17.292 3.07543L27.5054 12.7781C28.1868 13.4254 28.5725 14.324 28.5725 15.2638V25.1397C28.5725 26.7177 27.2934 27.9968 25.7154 27.9968H18.8583C18.2271 27.9968 17.7154 27.4852 17.7154 26.854V20.5681C17.7154 19.6213 16.9479 18.8538 16.0011 18.8538C15.0543 18.8538 14.2868 19.6213 14.2868 20.5681V26.854C14.2868 27.4852 13.7752 27.9968 13.144 27.9968H6.28683C4.70887 27.9968 3.42969 26.7177 3.42969 25.1397V15.2638C3.42969 14.324 3.81547 13.4254 4.49683 12.7781L14.7102 3.07543C15.4336 2.38819 16.5686 2.38819 17.292 3.07543ZM16.0011 5.00177L6.07112 14.4353C5.844 14.651 5.7154 14.9506 5.7154 15.2638V25.1397C5.7154 25.4553 5.97124 25.7111 6.28683 25.7111H12.0011V20.5681C12.0011 18.359 13.792 16.5681 16.0011 16.5681C18.2103 16.5681 20.0011 18.359 20.0011 20.5681V25.7111H25.7154C26.031 25.7111 26.2868 25.4553 26.2868 25.1397V15.2638C26.2868 14.9506 26.1582 14.651 25.9311 14.4353L16.0011 5.00177Z" />
	</symbol>
	<symbol id='plus'  viewBox="0 0 36 36" fill="none">
		<path d="M17.9997 5.14258C18.7098 5.14258 19.2854 5.71821 19.2854 6.42829V16.714H29.5712C30.2812 16.714 30.8569 17.2896 30.8569 17.9997C30.8569 18.7098 30.2812 19.2854 29.5712 19.2854H19.2854V29.5712C19.2854 30.2812 18.7098 30.8569 17.9997 30.8569C17.2896 30.8569 16.714 30.2812 16.714 29.5712V19.2854H6.42829C5.71821 19.2854 5.14258 18.7098 5.14258 17.9997C5.14258 17.2896 5.71821 16.714 6.42829 16.714H16.714V6.42829C16.714 5.71821 17.2896 5.14258 17.9997 5.14258Z" fill="currentColor"/>
	</symbol>
	<symbol id='closeBtn' viewBox="0 0 60 60" fill="none">
		
			<path fill-rule="evenodd" clip-rule="evenodd" d="M46.2379 17.1202C46.9213 16.4368 46.9213 15.3288 46.2379 14.6454C45.5545 13.962 44.4464 13.962 43.763 14.6454L30.4416 27.9668L17.1202 14.6454C16.4368 13.962 15.3288 13.962 14.6454 14.6454C13.962 15.3288 13.962 16.4368 14.6454 17.1202L27.9668 30.4416L14.6475 43.7609C13.964 44.4444 13.964 45.5524 14.6475 46.2358C15.3309 46.9192 16.4389 46.9192 17.1223 46.2358L30.4416 32.9165L43.7609 46.2358C44.4444 46.9192 45.5524 46.9192 46.2358 46.2358C46.9192 45.5524 46.9192 44.4444 46.2358 43.7609L32.9165 30.4416L46.2379 17.1202Z" fill="currentColor"/>
		
	</symbol>
</svg>
